<svg width="279" height="245" viewBox="0 0 279 245" fill="none" xmlns="http://www.w3.org/2000/svg">
<path d="M69.9609 243.027L272.214 114.275L272.202 114.263C275.292 112.288 275.979 108.364 273.735 105.469L272.533 103.924C270.301 101.03 265.983 100.282 262.893 102.244L254.161 107.812C256.147 105.702 256.356 102.501 254.455 100.049L253.253 98.5032C251.021 95.6088 246.704 94.8607 243.613 96.823L195.941 127.177C197.928 125.068 198.137 121.867 196.236 119.414L195.034 117.869C193.133 115.428 189.735 114.508 186.866 115.489L256.528 71.1412C259.618 69.1667 260.305 65.2421 258.061 62.3476L256.859 60.8023C254.627 57.9079 250.31 57.1598 247.219 59.1221L217.662 77.9357C220.752 75.9612 221.439 72.0365 219.195 69.1421L217.993 67.5968C215.761 64.7024 211.443 63.9543 208.353 65.9166L196.346 73.5573C198.64 71.4479 198.97 68.0383 196.971 65.4505L195.77 63.9052C193.77 61.3174 190.103 60.4467 187.148 61.6976L238.45 29.0374C241.54 27.0628 242.227 23.1382 239.983 20.2438L238.781 18.6985C236.549 15.8041 232.232 15.0559 229.141 17.0182L26.8881 145.77C23.7975 147.745 23.1107 151.67 25.3551 154.564L26.557 156.109C28.7891 159.004 33.1062 159.752 36.1968 157.79L47.1368 150.823C44.8433 152.933 44.5122 156.342 46.5113 158.93L47.7131 160.475C49.7122 163.063 53.3794 163.934 56.3351 162.683L26.655 181.583C23.5644 183.557 22.8776 187.482 25.122 190.376L26.324 191.921C28.5561 194.816 32.8732 195.564 35.9639 193.602L74.3269 169.183C71.2363 171.158 70.5495 175.082 72.7939 177.977L73.9959 179.522C75.8969 181.963 79.2941 182.883 82.1639 181.901L63.9022 193.528C60.8115 195.503 60.1247 199.427 62.3691 202.322L63.5711 203.867C65.8033 206.761 70.1203 207.51 73.211 205.547L115.474 178.639C113.487 180.749 113.279 183.95 115.18 186.402L116.382 187.948C118.283 190.388 121.68 191.308 124.55 190.327L60.6522 231.008C57.5616 232.983 56.8748 236.908 59.1192 239.802L60.321 241.347C62.5532 244.242 66.8702 244.99 69.9609 243.027Z" fill="#FAFAFA"/>
<path d="M249.709 7.6482C250.592 2.5462 255.853 -0.801987 261.458 0.166904C267.063 1.14806 270.877 6.07836 269.994 11.1804C269.111 16.2824 263.85 19.6306 258.245 18.6617C252.64 17.6805 248.825 12.7502 249.709 7.6482Z" fill="#FAFAFA"/>
<path d="M0.127025 201.377C1.01006 196.275 6.27162 192.927 11.8765 193.896C17.4813 194.877 21.2955 199.808 20.4125 204.91C19.5294 210.012 14.268 213.36 8.66319 212.391C3.05834 211.41 -0.756016 206.479 0.127025 201.377Z" fill="#FAFAFA"/>
<path d="M257.705 81.8972C258.588 76.7952 263.85 73.447 269.454 74.4158C275.059 75.397 278.873 80.3273 277.99 85.4293C277.107 90.5313 271.846 93.8918 266.241 92.9106C260.636 91.9295 256.822 86.9992 257.705 81.8972Z" fill="#FAFAFA"/>
<path d="M41.7526 212.182C42.6357 207.08 47.8971 203.732 53.5019 204.701C59.1068 205.682 62.9211 210.613 62.0381 215.715C61.1551 220.817 55.8935 224.165 50.2886 223.196C44.6838 222.215 40.8696 217.284 41.7526 212.182Z" fill="#FAFAFA"/>
<path d="M154.536 28.4978C105.16 28.4978 63.9636 64.2118 55.4275 111.172H55.4398L44.4264 116.986C45.5915 106.352 48.2896 96.0013 52.4718 86.1039C58.0521 72.9196 66.0485 61.0599 76.2157 50.8927C86.3829 40.7132 98.2303 32.729 111.427 27.1487C125.089 21.3721 139.598 18.4409 154.549 18.4409C165.685 18.4409 176.588 20.0721 187.074 23.2976L175.766 30.7544C168.923 29.2704 161.822 28.4978 154.536 28.4978Z" fill="#FAFAFA"/>
<path d="M254.013 145.12C254.013 145.122 254.013 145.124 254.013 145.125L264.966 138.179C264.033 149.977 261.237 161.444 256.613 172.36C251.033 185.544 243.037 197.404 232.869 207.571C222.702 217.75 210.855 225.735 197.658 231.315C183.996 237.091 169.487 240.023 154.536 240.023C139.586 240.023 125.077 237.091 111.415 231.315L111.405 231.311C110.697 231.006 109.989 230.7 109.293 230.383L120.76 224.128C131.32 227.893 142.689 229.954 154.536 229.954C204.672 229.954 246.37 193.138 254.013 145.125L254.001 145.133L254.013 145.12Z" fill="#FAFAFA"/>
</svg>
