<svg width="213" height="249" viewBox="0 0 213 249" fill="none" xmlns="http://www.w3.org/2000/svg">
<path d="M51.5356 13.1287L24.5871 109.521C23.2052 114.358 26.6601 118.85 31.8425 118.85H52.5721C56.0271 118.85 59.1365 116.431 59.8275 113.322L85.394 22.1116C88.5034 11.0558 80.2115 0 68.8103 0C60.5184 0 53.6085 5.52789 51.5356 13.1287Z" fill="#F40059"/>
<path d="M124.434 74.9708L101.977 152.707C100.595 157.544 104.05 162.035 108.887 162.035H129.616C133.071 162.035 136.181 159.617 136.872 156.507L159.329 78.7712C160.711 73.9343 157.256 69.4429 152.074 69.4429H131.344C128.58 69.4429 125.471 71.8614 124.434 74.9708Z" fill="#F40059"/>
<path d="M78.8294 74.9708L68.81 109.52C67.428 114.357 70.883 118.848 75.7199 118.848H96.4495C99.9044 118.848 103.014 116.43 103.705 113.321L113.724 78.7712C115.106 73.9343 111.651 69.4429 106.814 69.4429H86.0847C82.9752 69.4429 79.8659 71.8614 78.8294 74.9708Z" fill="#F40059"/>
<path d="M199.407 34.8928C189.387 34.8928 180.059 41.8027 177.295 51.4765L144.473 170.326C138.6 170.326 131.69 170.326 131.345 170.326C117.525 170.326 101.632 168.599 95.7588 178.273C93.6858 180.691 92.3038 188.637 90.5763 193.129C88.8489 190.019 80.2115 179.309 78.1386 177.582C70.5377 171.708 56.3724 170.672 46.3531 169.981C44.6257 169.981 43.9347 169.29 43.9347 166.526C45.3167 162.38 46.6987 162.034 48.7716 162.034C54.2995 162.034 62.2459 161.689 66.7373 161.689C92.9948 161.343 86.4304 165.835 95.4132 137.85C97.4862 131.285 95.4133 128.867 88.8489 128.867C69.5013 129.212 47.7352 129.212 28.733 128.867C21.4777 128.867 18.0227 131.631 15.6042 138.886C7.65788 165.144 9.0399 159.27 0.748056 185.528C-2.70688 197.275 6.27595 210.403 18.0227 210.749C21.1322 210.749 28.042 210.749 47.0442 210.749C53.6085 210.749 60.1729 213.167 65.3553 216.968L103.014 247.026C106.469 249.79 111.651 248.062 112.688 243.916L122.016 210.749C133.072 210.749 141.364 210.749 143.437 210.749H164.166C167.621 210.749 170.731 208.33 171.422 205.221L210.808 59.7683C217.372 36.6202 199.407 34.8928 199.407 34.8928Z" fill="#F40059"/>
</svg>
